<svg xmlns="http://www.w3.org/2000/svg" width="32" height="32">
  <path fill="#ebd8ff" d="m32 6.792-2.251.45c-.959-3.144-3.887-5.438-7.341-5.438-4.231 0-7.673 3.442-7.673 7.673 0 .584.066 1.153.19 1.699L.862 1.934.393 3.363c-1.336 4.071 1.077 7.78 2.09 9.094a8.711 8.711 0 0 0-.18 2.489c.18 2.345 1.363 4.213 3.421 5.403.402.238.866.45 1.354.612l.051.015a9.316 9.316 0 0 0 3.584 4.034l.04.023a2.462 2.462 0 0 1-1.564.558H7.477a3.457 3.457 0 0 0-3.255-2.302v2.302a1.152 1.152 0 0 1 0 2.302v2.302c1.5 0 2.78-.962 3.255-2.302h1.712c1.547 0 2.925-.74 3.799-1.884a8.96 8.96 0 0 0 2.508.35h.008a9.144 9.144 0 0 0 6.465-2.652 9.142 9.142 0 0 0 2.735-6.906 7.701 7.701 0 0 0 5.23-5.818l2.067.413-1.535-2.302 1.535-2.302zm-8.057 3.069a1.15 1.15 0 1 1 0-2.301 1.15 1.15 0 0 1 0 2.301z"/>
</svg>
